<svg width="209" height="96" viewBox="0 0 209 96" fill="none" xmlns="http://www.w3.org/2000/svg">
<g clip-path="url(#clip0_2103_2016)">
<path d="M10.2793 85.2561C10.2793 84.9324 10.2295 84.6418 10.1299 84.3845C10.0386 84.1189 9.86426 83.8782 9.60693 83.6624C9.34961 83.4382 8.98853 83.2183 8.52368 83.0024C8.05884 82.7866 7.45703 82.5625 6.71826 82.3301C5.89648 82.0645 5.11621 81.7656 4.37744 81.4336C3.64697 81.1016 2.99951 80.7156 2.43506 80.2756C1.87891 79.8274 1.43896 79.3086 1.11523 78.7192C0.799805 78.1299 0.64209 77.4451 0.64209 76.6648C0.64209 75.9094 0.808105 75.2246 1.14014 74.6104C1.47217 73.9878 1.93701 73.4565 2.53467 73.0166C3.13232 72.5684 3.83789 72.2239 4.65137 71.9832C5.47314 71.7424 6.37378 71.6221 7.35327 71.6221C8.6897 71.6221 9.85596 71.8628 10.8521 72.3442C11.8481 72.8257 12.6201 73.4856 13.168 74.324C13.7241 75.1624 14.0022 76.1211 14.0022 77.2002H10.2917C10.2917 76.6689 10.1797 76.2041 9.95557 75.8057C9.73975 75.3989 9.40771 75.0793 8.95947 74.8469C8.51953 74.6145 7.96338 74.4983 7.29102 74.4983C6.64355 74.4983 6.104 74.5979 5.67236 74.7971C5.24072 74.988 4.91699 75.2495 4.70117 75.5815C4.48535 75.9053 4.37744 76.2705 4.37744 76.6772C4.37744 76.9844 4.45215 77.2625 4.60156 77.5115C4.75928 77.7605 4.9917 77.9929 5.29883 78.2087C5.60596 78.4246 5.98364 78.6279 6.43188 78.8188C6.88013 79.0098 7.39893 79.1965 7.98828 79.3792C8.97607 79.678 9.84351 80.0142 10.5906 80.3877C11.3459 80.7612 11.9768 81.1804 12.4832 81.6453C12.9895 82.1101 13.3713 82.6372 13.6287 83.2266C13.886 83.8159 14.0146 84.4841 14.0146 85.2312C14.0146 86.0198 13.8611 86.7253 13.554 87.3479C13.2468 87.9705 12.8027 88.4976 12.2217 88.9292C11.6406 89.3608 10.9475 89.6887 10.1423 89.9128C9.33716 90.137 8.43652 90.249 7.44043 90.249C6.54395 90.249 5.65991 90.1328 4.78833 89.9004C3.91675 89.6597 3.12402 89.2986 2.41016 88.8171C1.70459 88.3357 1.14014 87.7214 0.716797 86.9744C0.293457 86.2273 0.0817871 85.3433 0.0817871 84.3223H3.82959C3.82959 84.8867 3.91675 85.364 4.09106 85.7542C4.26538 86.1443 4.51025 86.4597 4.82568 86.7004C5.14941 86.9412 5.53125 87.1155 5.97119 87.2234C6.41943 87.3313 6.90918 87.3853 7.44043 87.3853C8.08789 87.3853 8.61914 87.2939 9.03418 87.1113C9.45752 86.9287 9.7688 86.6755 9.96802 86.3518C10.1755 86.0281 10.2793 85.6628 10.2793 85.2561ZM28.7195 87.0864V90H19.0698V87.0864H28.7195ZM20.29 71.8711V90H16.5547V71.8711H20.29ZM27.4619 79.2546V82.0935H19.0698V79.2546H27.4619ZM28.707 71.8711V74.7971H19.0698V71.8711H28.707ZM45.6531 71.8711V90H41.9177L34.6338 77.8477V90H30.8984V71.8711H34.6338L41.9302 84.0359V71.8711H45.6531ZM58.3408 85.2561C58.3408 84.9324 58.291 84.6418 58.1914 84.3845C58.1001 84.1189 57.9258 83.8782 57.6685 83.6624C57.4111 83.4382 57.05 83.2183 56.5852 83.0024C56.1204 82.7866 55.5186 82.5625 54.7798 82.3301C53.958 82.0645 53.1777 81.7656 52.439 81.4336C51.7085 81.1016 51.061 80.7156 50.4966 80.2756C49.9404 79.8274 49.5005 79.3086 49.1768 78.7192C48.8613 78.1299 48.7036 77.4451 48.7036 76.6648C48.7036 75.9094 48.8696 75.2246 49.2017 74.6104C49.5337 73.9878 49.9985 73.4565 50.5962 73.0166C51.1938 72.5684 51.8994 72.2239 52.7129 71.9832C53.5347 71.7424 54.4353 71.6221 55.4148 71.6221C56.7512 71.6221 57.9175 71.8628 58.9136 72.3442C59.9097 72.8257 60.6816 73.4856 61.2295 74.324C61.7856 75.1624 62.0637 76.1211 62.0637 77.2002H58.3533C58.3533 76.6689 58.2412 76.2041 58.0171 75.8057C57.8013 75.3989 57.4692 75.0793 57.021 74.8469C56.5811 74.6145 56.0249 74.4983 55.3525 74.4983C54.7051 74.4983 54.1655 74.5979 53.7339 74.7971C53.3022 74.988 52.9785 75.2495 52.7627 75.5815C52.5469 75.9053 52.439 76.2705 52.439 76.6772C52.439 76.9844 52.5137 77.2625 52.6631 77.5115C52.8208 77.7605 53.0532 77.9929 53.3604 78.2087C53.6675 78.4246 54.0452 78.6279 54.4934 78.8188C54.9417 79.0098 55.4604 79.1965 56.0498 79.3792C57.0376 79.678 57.905 80.0142 58.6521 80.3877C59.4075 80.7612 60.0383 81.1804 60.5447 81.6453C61.051 82.1101 61.4329 82.6372 61.6902 83.2266C61.9475 83.8159 62.0762 84.4841 62.0762 85.2312C62.0762 86.0198 61.9226 86.7253 61.6155 87.3479C61.3083 87.9705 60.8643 88.4976 60.2832 88.9292C59.7021 89.3608 59.009 89.6887 58.2039 89.9128C57.3987 90.137 56.498 90.249 55.502 90.249C54.6055 90.249 53.7214 90.1328 52.8499 89.9004C51.9783 89.6597 51.1855 89.2986 50.4717 88.8171C49.7661 88.3357 49.2017 87.7214 48.7783 86.9744C48.355 86.2273 48.1433 85.3433 48.1433 84.3223H51.8911C51.8911 84.8867 51.9783 85.364 52.1526 85.7542C52.3269 86.1443 52.5718 86.4597 52.8872 86.7004C53.2109 86.9412 53.5928 87.1155 54.0327 87.2234C54.481 87.3313 54.9707 87.3853 55.502 87.3853C56.1494 87.3853 56.6807 87.2939 57.0957 87.1113C57.519 86.9287 57.8303 86.6755 58.0295 86.3518C58.2371 86.0281 58.3408 85.6628 58.3408 85.2561ZM76.781 87.0864V90H67.1313V87.0864H76.781ZM68.3516 71.8711V90H64.6162V71.8711H68.3516ZM75.5234 79.2546V82.0935H67.1313V79.2546H75.5234ZM76.7686 71.8711V74.7971H67.1313V71.8711H76.7686ZM93.7146 71.8711V90H89.9792L82.6953 77.8477V90H78.96V71.8711H82.6953L89.9917 84.0359V71.8711H93.7146ZM104.062 82.0437H99.4048L99.3799 79.4788H103.29C103.979 79.4788 104.543 79.3916 104.983 79.2173C105.423 79.0347 105.751 78.7732 105.967 78.4329C106.191 78.0842 106.303 77.6609 106.303 77.1628C106.303 76.5984 106.195 76.1418 105.979 75.7932C105.771 75.4446 105.444 75.1914 104.995 75.0337C104.555 74.876 103.987 74.7971 103.29 74.7971H100.7V90H96.9644V71.8711H103.29C104.344 71.8711 105.286 71.9707 106.116 72.1699C106.954 72.3691 107.664 72.6721 108.245 73.0789C108.826 73.4856 109.27 74.0002 109.577 74.6228C109.885 75.2371 110.038 75.9675 110.038 76.8142C110.038 77.5613 109.868 78.2502 109.528 78.8811C109.196 79.512 108.668 80.0266 107.946 80.425C107.232 80.8235 106.299 81.0435 105.145 81.085L104.062 82.0437ZM103.9 90H98.3838L99.8406 87.0864H103.9C104.555 87.0864 105.091 86.9827 105.506 86.7751C105.921 86.5593 106.228 86.2688 106.427 85.9036C106.626 85.5383 106.726 85.1191 106.726 84.646C106.726 84.1147 106.635 83.6541 106.452 83.2639C106.278 82.8738 105.996 82.575 105.605 82.3674C105.215 82.1516 104.701 82.0437 104.062 82.0437H100.463L100.488 79.4788H104.97L105.83 80.4873C106.934 80.4707 107.822 80.6658 108.494 81.0725C109.175 81.4709 109.669 81.9897 109.976 82.6289C110.291 83.2681 110.449 83.9529 110.449 84.6833C110.449 85.8455 110.196 86.825 109.689 87.6218C109.183 88.4104 108.44 89.0039 107.461 89.4023C106.49 89.8008 105.302 90 103.9 90ZM113.25 71.8711H120.011C121.398 71.8711 122.589 72.0786 123.585 72.4937C124.589 72.9087 125.361 73.5229 125.901 74.3364C126.44 75.1499 126.71 76.1501 126.71 77.3372C126.71 78.3083 126.544 79.1426 126.212 79.8398C125.888 80.5288 125.428 81.1057 124.83 81.5706C124.241 82.0271 123.548 82.3923 122.751 82.6663L121.568 83.2888H115.691L115.666 80.3752H120.036C120.692 80.3752 121.236 80.259 121.667 80.0266C122.099 79.7942 122.423 79.4705 122.639 79.0554C122.863 78.6404 122.975 78.1589 122.975 77.6111C122.975 77.03 122.867 76.5278 122.651 76.1045C122.435 75.6812 122.107 75.3574 121.667 75.1333C121.228 74.9092 120.676 74.7971 120.011 74.7971H116.986V90H113.25V71.8711ZM123.386 90L119.252 81.9192L123.199 81.8943L127.383 89.8257V90H123.386ZM141.751 87.0864V90H132.102V87.0864H141.751ZM133.322 71.8711V90H129.586V71.8711H133.322ZM140.494 79.2546V82.0935H132.102V79.2546H140.494ZM141.739 71.8711V74.7971H132.102V71.8711H141.739ZM158.685 71.8711V90H154.949L147.666 77.8477V90H143.93V71.8711H147.666L154.962 84.0359V71.8711H158.685ZM176.689 71.8711V90H172.954L165.67 77.8477V90H161.935V71.8711H165.67L172.966 84.0359V71.8711H176.689ZM192.104 87.0864V90H182.454V87.0864H192.104ZM183.674 71.8711V90H179.939V71.8711H183.674ZM190.846 79.2546V82.0935H182.454V79.2546H190.846ZM192.091 71.8711V74.7971H182.454V71.8711H192.091ZM194.283 71.8711H201.044C202.43 71.8711 203.621 72.0786 204.617 72.4937C205.622 72.9087 206.394 73.5229 206.933 74.3364C207.473 75.1499 207.742 76.1501 207.742 77.3372C207.742 78.3083 207.576 79.1426 207.244 79.8398C206.921 80.5288 206.46 81.1057 205.862 81.5706C205.273 82.0271 204.58 82.3923 203.783 82.6663L202.6 83.2888H196.723L196.698 80.3752H201.069C201.724 80.3752 202.268 80.259 202.7 80.0266C203.131 79.7942 203.455 79.4705 203.671 79.0554C203.895 78.6404 204.007 78.1589 204.007 77.6111C204.007 77.03 203.899 76.5278 203.683 76.1045C203.468 75.6812 203.14 75.3574 202.7 75.1333C202.26 74.9092 201.708 74.7971 201.044 74.7971H198.018V90H194.283V71.8711ZM204.418 90L200.284 81.9192L204.231 81.8943L208.415 89.8257V90H204.418Z" fill="white"/>
<path d="M12.5293 6.28125V66H0.224609V6.28125H12.5293ZM48.2949 6.28125L24.6289 35.7715L10.9707 50.4551L8.75586 38.8066L17.9844 26.1738L33.2012 6.28125H48.2949ZM34.3086 66L16.7129 38.3965L25.8184 30.7676L48.8691 66H34.3086ZM86.6035 6.28125H98.8672V45.7383C98.8672 50.332 97.8828 54.2012 95.9141 57.3457C93.9727 60.4902 91.2793 62.8555 87.834 64.4414C84.416 66.0273 80.4785 66.8203 76.0215 66.8203C71.5645 66.8203 67.5996 66.0273 64.127 64.4414C60.6816 62.8555 57.9746 60.4902 56.0059 57.3457C54.0645 54.2012 53.0938 50.332 53.0938 45.7383V6.28125H65.3984V45.7383C65.3984 48.418 65.8223 50.6055 66.6699 52.3008C67.5176 53.9961 68.7344 55.2402 70.3203 56.0332C71.9336 56.8262 73.834 57.2227 76.0215 57.2227C78.2637 57.2227 80.1641 56.8262 81.7227 56.0332C83.3086 55.2402 84.5117 53.9961 85.332 52.3008C86.1797 50.6055 86.6035 48.418 86.6035 45.7383V6.28125ZM108.998 6.28125H131.27C135.836 6.28125 139.76 6.96484 143.041 8.33203C146.35 9.69922 148.893 11.7227 150.67 14.4023C152.447 17.082 153.336 20.377 153.336 24.2871C153.336 27.4863 152.789 30.2344 151.695 32.5312C150.629 34.8008 149.111 36.7012 147.143 38.2324C145.201 39.7363 142.918 40.9395 140.293 41.8418L136.396 43.8926H117.037L116.955 34.2949H131.352C133.512 34.2949 135.303 33.9121 136.725 33.1465C138.146 32.3809 139.213 31.3145 139.924 29.9473C140.662 28.5801 141.031 26.9941 141.031 25.1895C141.031 23.2754 140.676 21.6211 139.965 20.2266C139.254 18.832 138.174 17.7656 136.725 17.0273C135.275 16.2891 133.457 15.9199 131.27 15.9199H121.303V66H108.998V6.28125ZM142.385 66L128.768 39.3809L141.77 39.2988L155.551 65.4258V66H142.385ZM187.051 6.28125V66H174.787V6.28125H187.051ZM205.426 6.28125V15.9199H156.699V6.28125H205.426Z" fill="white"/>
</g>
<defs>
<clipPath id="clip0_2103_2016">
<rect width="209" height="96" fill="white"/>
</clipPath>
</defs>
</svg>
